<svg width="789" height="777" viewBox="0 0 789 777" fill="none" xmlns="http://www.w3.org/2000/svg">
<circle cx="391.875" cy="271.375" r="35.8751" fill="#C7F1F4"/>
<circle cx="596.875" cy="300.375" r="35.8751" fill="#FFC20F"/>
<circle cx="686.41" cy="69.0645" r="35.8751" fill="#31BF5D"/>
<circle cx="686.41" cy="69.0645" r="35.8751" fill="#31BF5D"/>
<circle cx="421.875" cy="611.375" r="35.8751" fill="#31BF5D"/>
<circle cx="421.875" cy="611.375" r="35.8751" fill="#0A203D"/>
<circle cx="109.875" cy="575.375" r="35.8751" fill="#31BF5D"/>
<circle cx="109.875" cy="575.375" r="35.8751" fill="#5593E3"/>
<path d="M477 5L647.384 278.201C664.521 305.679 651.414 341.951 620.67 352.127L93.5863 526.588C54.7219 539.451 46.9419 591.016 80.2807 614.774L255.38 739.553C281.994 758.519 319.349 747.273 331.07 716.767L377.293 596.461C387.196 570.686 416.119 557.817 441.895 567.719L771.912 694.487" stroke="white" stroke-width="6"/>
<path d="M573.5 5L643.078 104.398C658.815 126.879 689.732 132.476 712.351 116.937L786.5 66" stroke="white" stroke-width="6"/>
<path d="M389 12L445.016 264.678C451.937 295.897 428.179 325.5 396.202 325.5H387.415C371.444 325.5 356.434 317.87 347.021 304.968L126 2" stroke="white" stroke-width="6"/>
</svg>
