<svg width="386" height="315" viewBox="0 0 386 315" fill="none" xmlns="http://www.w3.org/2000/svg">
<path d="M306.858 9.84554C311.406 5.30562 317.937 3 323.625 3C327.603 3 334.586 4.09338 340.25 9.77423L376.231 45.7727C381.908 51.4536 383 58.4417 383 62.4231C383 68.1158 380.696 74.6523 376.16 79.2041L150.44 305.059C146.284 309.207 140.228 312 133.625 312C127.07 312 121.097 309.362 116.81 305.083L9.84009 198.05C5.30384 193.499 3.00009 186.962 3.00009 181.269C3.00009 177.288 4.09259 170.3 9.76884 164.631L45.7501 128.62C51.4145 122.94 58.397 121.846 62.3751 121.846C68.0632 121.846 74.5945 124.152 79.1426 128.704L133.625 183.23" stroke="#D7E5F3" stroke-width="6" stroke-linecap="round"/>
<path d="M293.583 20.4169L142.826 171.174" stroke="#6DCAD2" stroke-width="6" stroke-linecap="round" stroke-dasharray="12 12"/>
</svg>
