<svg viewBox="0 0 75 50" fill="none" xmlns="http://www.w3.org/2000/svg">
<path d="M0.9375 30.8528C0.9375 24.6679 3.2487 18.7109 7.87109 12.9817C12.5586 7.25252 17.7669 3.08586 23.4961 0.481689L25.3516 4.38794C20.7943 6.99211 16.888 10.2473 13.6328 14.1536C10.4427 17.9947 8.84766 21.901 8.84766 25.8723C8.84766 26.6536 9.07552 27.2395 9.53125 27.6301C10.0521 28.0208 10.7031 28.2161 11.4844 28.2161C15.7161 27.7603 17.9948 27.5325 18.3203 27.5325C20.4688 27.5325 22.7799 28.3137 25.2539 29.8762C27.793 31.4387 29.0625 34.108 29.0625 37.884C29.0625 41.0741 28.0208 43.776 25.9375 45.9895C23.8542 48.203 20.8919 49.3098 17.0508 49.3098C12.5586 49.3098 8.75 47.5846 5.625 44.134C2.5 40.6184 0.9375 36.1913 0.9375 30.8528ZM46.8359 31.634C46.8359 24.6679 49.1797 18.3853 53.8672 12.7864C58.6198 7.12231 63.7956 3.02075 69.3945 0.481689L71.25 4.38794C66.6927 6.99211 62.7865 10.2148 59.5312 14.0559C56.3411 17.8319 54.7461 21.7056 54.7461 25.677C54.7461 26.3931 54.9414 27.0116 55.332 27.5325C55.7227 27.9882 56.4062 28.2161 57.3828 28.2161C61.5495 27.7603 63.8281 27.5325 64.2188 27.5325C66.6276 27.5325 69.0039 28.4114 71.3477 30.1692C73.7565 31.8619 74.9609 34.401 74.9609 37.7864C74.9609 40.4556 74.0169 43.0598 72.1289 45.5989C70.306 48.0728 67.2135 49.3098 62.8516 49.3098C58.1641 49.3098 54.3229 47.5194 51.3281 43.9387C48.3333 40.2929 46.8359 36.1913 46.8359 31.634Z" fill="#6DCAD2"/>
</svg>
