<?xml version="1.0" encoding="UTF-8"?>
<svg id="Layer_2" data-name="Layer 2" xmlns="http://www.w3.org/2000/svg" width="213.3" height="27.2" viewBox="0 0 213.3 27.2">
  <g id="Layer_1-2" data-name="Layer 1">
    <g>
      <path d="M9.2,17.2l4.4-7.6,4.4,7.6H9.2ZM13.6,3.2L0,26.8H3.7l3.7-6.3h12.5l3.7,6.3h3.7L13.6,3.2ZM107.5,23.6c-4.8,0-8.7-3.9-8.7-8.7s3.9-8.7,8.7-8.7,5,1.1,6.7,3.1l2.7-2.2c-2.3-2.8-5.7-4.3-9.3-4.3-6.7,0-12.1,5.5-12.1,12.1s5.5,12.1,12.1,12.1,7-1.6,9.3-4.3l-2.7-2.2c-1.7,2-4.1,3.1-6.7,3.1m-34.1-10.8c-4.2-1.1-6.1-1.9-6.1-3.6s1.8-3.2,6.1-3.2,6.5,2.5,7.2,3.3l2.7-2.2c-3-3.6-7.2-4.2-9.9-4.2-6.9,0-9.7,3.4-9.7,6.4,0,4.6,4.5,5.7,9.7,7.1,2.8,.7,6.4,1.6,6.5,4,0,2-2.5,3.6-6.5,3.6s-6.1-1.8-7-2.7l-2.8,2.3c1.9,1.9,5.7,3.6,9.7,3.6s10.1-1.6,10.1-6.8c0-5.3-5.9-6.5-10.1-7.6M213.3,6.4V3.2h-18.1V26.8h18.1v-3.3h-14.6v-7h13.2v-3.2h-13.2V6.4h14.6Zm-180.1,0h8.3V26.8h3.5V6.4h8.3V3.2h-20.1v3.2ZM169.5,23.5h14.6v3.3h-18.1V3.2h3.5V23.5Z"/>
      <g>
        <polygon points="125 26.8 141.5 26.8 133.3 12.5 125 26.8"/>
        <polygon points="140.5 0 135.2 9.3 136.1 10.9 137 12.5 140.5 6.5 150.4 23.5 143.4 23.5 144.3 25.2 145.3 26.8 156 26.8 140.5 0"/>
      </g>
    </g>
  </g>
</svg>