<?xml version="1.0" encoding="UTF-8"?>
<svg id="Layer_2" data-name="Layer 2" xmlns="http://www.w3.org/2000/svg" width="120.8" height="40.3" viewBox="0 0 120.8 40.3">
  <g id="Layer_1-2" data-name="Layer 1">
    <g>
      <path d="M0,30.9s2-4.9,4.3-10.8l4.3-10.7h6.2l9.5,21.5s-1.3,0-2.9,0h-2.9s-1.7-4.2-1.7-4.2H7.3s-1.6,4.2-1.6,4.2H0Zm15.3-8.1c0-.2-3.4-8.3-3.4-8.2s-3.1,8.3-3.1,8.3,1.5,0,3.3,0h3.3Zm11.6-2.8V9.4h4.7l3.4,4,3.5,4s1.6-1.8,3.5-4l3.4-4h4.7V30.9h-5.3v-13.4s-1.3,1.5-2.9,3.4l-2.9,3.4h-.8l-2.9-3.4-2.9-3.4s0,3,0,6.7v6.7h-5.3v-10.8Zm27.2,0V9.4s4.6,0,4.6,0c4.9,0,5.9,0,6.8,.1,3.3,.4,5.9,1.7,7.7,3.9,1.2,1.5,1.9,3.3,2.2,5.5,0,.5,0,2,0,2.6-.2,1.6-.6,3-1.2,4.2-1.6,3-4.7,4.7-9,5.2-.9,.1-1.5,.1-6.3,.1h-4.8v-10.8s0,0,0,0Zm9.7,6.8c1.6-.1,2.9-.6,4-1.4,.4-.3,.7-.7,1-1,.6-.9,1-2,1.2-3.3,0-.4,0-1.8,0-2.1-.2-1.3-.6-2.4-1.2-3.2-.3-.4-.7-.8-1-1.1-1-.8-2.2-1.2-3.7-1.4-.2,0-1.2,0-2.4,0h-2.1v13.6h4.3s0,0,0,0Z"/>
      <path d="M80.5,32.4v-7.9l11.3-11.3v15.8h15.8l-11.3,11.3h-15.8v-7.9Zm34.8,2.1l-5.5-5.5V11h-18L80.8,0h40V19.8s0,19.9,0,19.9c0,0,0,.1,0,.2,0,0-1.4-1.3-5.5-5.4h0Z"/>
    </g>
  </g>
</svg>