<?xml version="1.0" encoding="UTF-8"?>
<svg id="Layer_2" data-name="Layer 2" xmlns="http://www.w3.org/2000/svg" width="253.4" height="36" viewBox="0 0 253.4 36">
  <g id="Layer_1-2" data-name="Layer 1">
    <g id="Logo">
      <g id="Group_837" data-name="Group 837">
        <path id="Path_855" data-name="Path 855" d="M59,26.6h-12.7l4.1-21.4h12.5c5.6,0,9.5,1.3,11.6,3.9,1.5,2,2.1,4.5,1.5,6.9-1,5.1-6,10.6-17,10.6Zm-4.8-5.8h5.4c5.4,0,8.4-1.6,9-5,.3-1,.1-2.2-.5-3-1-1.2-3.2-1.8-6.5-1.8h-5.6l-1.9,9.8Z"/>
      </g>
      <g id="Group_838" data-name="Group 838">
        <path id="Path_856" data-name="Path 856" d="M83.4,26.6h-6.8l4.1-21.4h6.8l-4.1,21.4Z"/>
      </g>
      <g id="Group_839" data-name="Group 839">
        <path id="Path_857" data-name="Path 857" d="M116.4,26.6h-7.9l-1.6-4.6h-11.5l-3.4,4.6h-7.8l15.7-21.5h8.7l7.6,21.5Zm-17.4-9.6h6.4l-1.9-6h-.3l-4.3,6Z"/>
      </g>
      <g id="Group_840" data-name="Group 840">
        <path id="Path_858" data-name="Path 858" d="M150.4,26.6h-6.7l2.5-12.9-10.4,12.9h-3.6l-5.5-13-2.5,13h-6.7l4.1-21.4h9.2l5.1,12,9.7-12h9l-4.1,21.4Z"/>
      </g>
      <g id="Group_841" data-name="Group 841">
        <path id="Path_859" data-name="Path 859" d="M183.5,26.6h-7.9l-1.6-4.6h-11.5l-3.4,4.6h-7.8l15.7-21.5h8.7l7.6,21.5Zm-17.4-9.6h6.4l-1.9-6h-.3l-4.3,6Z"/>
      </g>
      <g id="Group_842" data-name="Group 842">
        <path id="Path_860" data-name="Path 860" d="M211.6,26.6h-7.3l-10.4-13.6-2.6,13.6h-6.8l4.1-21.4h8.2l9.7,12.7,2.4-12.7h6.7l-4.1,21.4Z"/>
      </g>
      <g id="Group_843" data-name="Group 843">
        <path id="Path_861" data-name="Path 861" d="M230.5,26.6h-6.8l3-15.6h-10l1.1-5.8h26.9l-1.1,5.8h-10l-3,15.6Z"/>
      </g>
      <g id="Group_844" data-name="Group 844">
        <path id="Path_862" data-name="Path 862" d="M249.3,26.6h-6.8l4.1-21.4h6.8l-4.1,21.4Z"/>
      </g>
      <g id="Group_845" data-name="Group 845">
        <path id="Path_863" data-name="Path 863" d="M21.5,36L0,9.4,7.6,0H26l7.3,9-12,14.8-3.5-4.4,8.3-10.2-2.7-3.5H10.1l-3,3.7,14.4,17.8,14.4-17.8L28.4,0h7l7.6,9.4-21.5,26.6Z"/>
      </g>
    </g>
  </g>
</svg>