<?xml version="1.0" encoding="UTF-8"?>
<svg id="Layer_2" data-name="Layer 2" xmlns="http://www.w3.org/2000/svg" width="233.1" height="29.8" viewBox="0 0 233.1 29.8">
  <g id="Layer_1-2" data-name="Layer 1">
    <g>
      <path d="M91,2.8v-.9l-.4-.3h-16.1l-.3,.3v.9l.3,.3h6.9l.3,.3V22.9l.3,.3h1.2l.3-.3V3.4l.3-.3h7l.4-.4h0Zm3.6,4.7c-4.3,0-6.9,3.1-6.9,7.5v.7c0,4.3,2.2,8.1,7.1,8.1s5.9-2.8,6.2-4.7l-.3-.3h-1.2l-.3,.3c-.7,1.9-1.9,3.1-4.3,3.1-4,0-5.2-3.8-5.2-5.6l.3-.3h11.2l.3-.3v-.9c0-4.4-2.4-7.5-6.9-7.5h0Zm0,1.6c1.9,0,3.1,.8,3.9,1.8,.8,1,1.1,2.4,1.1,3.4l-.3,.3h-9.4l-.3-.3c0-1.1,.3-2.4,1.1-3.4,.8-1,2-1.8,3.9-1.8h0Zm9.9,6.4c0-4.3,2.1-6.6,5.2-6.6s4.3,1.9,4.7,3.8l.3,.3h1.3l.3-.3c-.3-3.1-2.8-5.2-6.6-5.2s-7.1,2.6-7.1,8.1,3.1,8.1,7.1,8.1,6.2-2.1,6.6-5.2l-.3-.3h-1.2l-.3,.3c-.3,1.9-1.6,3.8-4.7,3.8s-5.4-2.1-5.4-6.6h0Zm26.9,7.5V13.6c0-4-2.1-6.2-5.6-6.2s-4,.9-5,2.6h-.3V2l-.4-.4h-1.2l-.3,.3V23.1l.3,.3h1.2l.3-.3V14.6c0-3.5,1.6-5.6,5-5.6s4,1.6,4,4.7v9.4l.3,.3h1.2l.5-.3h0Zm15.9,0V13.6c0-4-2.1-6.2-5.6-6.2s-4,.9-5,2.6h-.3l-.3-1.9-.3-.3h-.9l-.3,.3v14.9l.3,.3h1.2l.3-.3V14.6c0-3.5,1.6-5.6,5-5.6s4,1.6,4,4.7v9.4l.3,.3h1.3l.3-.3h0Zm9-15.5c-4,0-7.1,2.8-7.1,8.1s3.1,8.1,7.1,8.1,7.1-2.8,7.1-8.1-3.1-8.1-7.1-8.1Zm0,1.5c1.5,0,2.9,.6,3.8,1.8,.9,1.1,1.5,2.8,1.5,4.8s-.5,3.7-1.5,4.8c-.9,1.1-2.2,1.8-3.8,1.8s-2.9-.6-3.8-1.8c-.9-1.1-1.5-2.8-1.5-4.8s.5-3.7,1.5-4.9c.9-1.1,2.2-1.7,3.8-1.7h0Zm11.3,14V1.8l-.4-.3h-1.2l-.3,.3V23.1l.3,.3h1.2l.4-.3Zm9.3-15.5c-4,0-7.1,2.8-7.1,8.1s3.1,8.1,7.1,8.1,7.1-2.8,7.1-8.1-3.1-8.1-7.1-8.1Zm0,1.5c1.5,0,2.9,.6,3.8,1.8,.9,1.1,1.5,2.8,1.5,4.8s-.5,3.7-1.5,4.8c-.9,1.1-2.2,1.8-3.8,1.8s-2.9-.6-3.8-1.8c-.9-1.1-1.5-2.8-1.5-4.8s.5-3.7,1.5-4.9c.9-1.1,2.2-1.7,3.8-1.7h0Zm15.3-1.6c-4.3,0-6.6,3.5-6.6,8.1s2.2,8.1,6.6,8.1,4.3-1.2,5-2.6h0c0,4.2-.9,7.3-4.7,7.3s-3.8-1.2-4-2.8l-.3-.3h-1.2l-.3,.3c.3,2.6,2.2,4.3,5.9,4.3s6.6-2.6,6.6-8.7V8.1l-.3-.3h-.9l-.3,.3-.3,1.9h-.3c-.7-1.2-2.2-2.6-5-2.6h0Zm0,1.5c1.5,0,2.8,.5,3.7,1.6,.9,1.1,1.3,2.7,1.3,5s-.5,3.9-1.3,5c-.9,1.1-2.1,1.6-3.7,1.6s-2.8-.5-3.7-1.6c-.9-1.1-1.3-2.7-1.3-5s.5-3.8,1.3-4.9c.9-1.1,2.1-1.7,3.7-1.7h0Zm11.8-3.9v-1.9l-.3-.3h-1.2l-.4,.3v1.9l.3,.3h1.2l.4-.3Zm0,18V8.1l-.3-.3h-1.2l-.4,.3v14.9l.3,.3h1.2l.4-.3Zm9-15.6c-4.3,0-6.9,3.1-6.9,7.5v.7c0,4.3,2.2,8.1,7.1,8.1s5.9-2.8,6.2-4.7l-.3-.3h-1.2l-.3,.3c-.7,1.9-1.9,3.1-4.3,3.1-4,0-5.2-3.8-5.2-5.6l.3-.3h11.2l.3-.3v-.9c0-4.3-2.6-7.5-6.9-7.5h0Zm0,1.6c1.9,0,3.1,.8,3.9,1.8,.8,1,1.1,2.4,1.1,3.4l-.3,.3h-9.4l-.3-.3c0-1.1,.3-2.4,1.1-3.4,.8-1,2-1.8,3.9-1.8h0Zm20,10.2c0-2.8-1.6-4-4.7-4.7-3.1-.7-5-.9-5-3.1s1.2-2.6,3.5-2.6,3.8,1.2,3.8,2.8l.3,.3h1.2l.3-.3c0-3.1-2.6-4.3-5.6-4.3s-5.2,1.9-5.2,4,1.9,3.8,5,4.3c3.1,.7,4.7,.9,4.7,3.5s-.9,2.8-4,2.8-4-1.6-4-3.5l-.3-.3h-1.2l-.3,.3c0,2.8,2.1,5,5.9,5,3.9,.1,5.8-1.7,5.8-4.3h0Z"/>
      <path d="M74.2,18.7v4.4h-14V1.2h5.1V18.7h8.9ZM31.8,0l-12.4,9.6C18.1,4.8,14,1.3,8.9,1.3H0V23.2H8.9c5.1,0,9.6-3.5,10.5-8.3l12.4,9.6,12.4-9.6v8.3h14v-4.5h-9.2V1.3h-5.1V9.6l-11.8,9.6-2.5-2.2,5.7-4.5,6.1-4.8-3.5-2.9-11.8,9.2-2.5-2.2L35.3,2.9,31.8,0h0ZM4.8,5.7h3.8c.8,0,1.6,.2,2.3,.5,.7,.3,1.4,.8,1.9,1.4,.6,.6,1,1.3,1.3,2.1,.3,.8,.5,1.7,.5,2.7s-.2,1.7-.5,2.5c-.3,.8-.7,1.5-1.3,2.1s-1.2,1.1-1.9,1.5c-.7,.4-1.5,.6-2.4,.6h-3.8V5.7h0Z"/>
    </g>
  </g>
</svg>