<?xml version="1.0" encoding="UTF-8"?>
<svg id="Layer_2" data-name="Layer 2" xmlns="http://www.w3.org/2000/svg" width="225.5" height="43.2" viewBox="0 0 225.5 43.2">
  <g id="Layer_1-2" data-name="Layer 1">
    <g>
      <g>
        <polygon points="0 18.9 0 13.5 18.9 13.5 18.9 0 37.8 18.9 0 18.9"/>
        <polygon points="0 24.3 18.9 43.2 18.9 29.6 37.8 29.6 37.8 24.3 0 24.3"/>
      </g>
      <g>
        <g>
          <path d="M53.5,11.1h10c2.3,0,4.3,.4,6.1,1.3,1.8,.9,3.2,2.1,4.1,3.7,1,1.6,1.5,3.4,1.5,5.6s-.5,4-1.5,5.6c-1,1.6-2.3,2.8-4.1,3.7-1.8,.9-3.8,1.3-6.1,1.3h-10V11.1Zm9.7,16.3c1.8,0,3.2-.5,4.3-1.5,1.1-1,1.6-2.4,1.6-4.2s-.5-3.2-1.6-4.2c-1.1-1-2.5-1.5-4.3-1.5h-3.7v11.5h3.7Zm27.4,.6h-8.9l-1.7,4.1h-6.1l9.3-21h5.9l9.3,21h-6.2l-1.7-4.1Zm-1.8-4.4l-2.7-6.7-2.7,6.7h5.4Z"/>
          <polygon points="101.8 15.8 95.3 15.8 95.3 11.1 114.2 11.1 114.2 15.8 107.7 15.8 107.7 32.1 101.8 32.1 101.8 15.8"/>
          <path d="M127.6,28h-8.9l-1.7,4.1h-6.1l9.3-21h5.9l9.3,21h-6.2l-1.7-4.1Zm-1.7-4.4l-2.7-6.7-2.7,6.7h5.4Z"/>
        </g>
        <path d="M141.1,31.1c-1.8-.9-3.1-2.2-4.1-3.9-1-1.7-1.5-3.5-1.5-5.7s.5-4,1.5-5.7c1-1.7,2.4-2.9,4.1-3.9,1.8-.9,3.7-1.4,5.9-1.4s3.6,.3,5.2,1,2.8,1.7,3.8,2.9l-3.8,3.4c-1.4-1.7-3-2.4-5-2.4s-2.2,.3-3,.8-1.6,1.2-2.1,2.1c-.5,.9-.7,2-.7,3.1s.2,2.2,.7,3.1,1.2,1.6,2.1,2.1c.9,.5,1.9,.8,3,.8,2,0,3.6-.8,5-2.4l3.8,3.4c-1,1.3-2.3,2.2-3.8,2.9-1.6,.7-3.3,1-5.2,1-2.2,0-4.2-.5-5.9-1.4Zm21.2,0c-1.8-.9-3.2-2.2-4.2-3.9-1-1.7-1.5-3.5-1.5-5.6s.5-4,1.5-5.6c1-1.7,2.4-3,4.2-3.9,1.8-.9,3.8-1.4,6-1.4s4.2,.5,6,1.4c1.8,.9,3.2,2.3,4.2,3.9,1,1.7,1.5,3.5,1.5,5.6s-.5,4-1.5,5.6-2.4,3-4.2,3.9c-1.8,.9-3.8,1.4-6,1.4s-4.2-.5-6-1.4Zm8.9-4.3c.9-.5,1.6-1.2,2.1-2.1,.5-.9,.8-2,.8-3.1s-.3-2.2-.8-3.1c-.5-.9-1.2-1.6-2.1-2.1-.9-.5-1.8-.8-2.9-.8s-2,.3-2.9,.8c-.9,.5-1.6,1.2-2.1,2.1s-.8,2-.8,3.1,.3,2.2,.8,3.1,1.2,1.6,2.1,2.1c.9,.5,1.8,.8,2.9,.8,1.1,0,2-.3,2.9-.8Zm20.4-.3h-3.2v5.6h-6V11.1h9.6c1.9,0,3.5,.3,5,1,1.4,.6,2.5,1.5,3.2,2.7,.8,1.2,1.2,2.5,1.2,4.1s-.4,2.8-1.1,4-1.7,2-3,2.6l4.5,6.6h-6.4l-3.9-5.6Zm2.8-10c-.6-.5-1.6-.8-2.8-.8h-3.3v6.2h3.3c1.2,0,2.2-.3,2.8-.8,.6-.5,.9-1.3,.9-2.3s-.3-1.7-.9-2.2Z"/>
        <polygon points="220.7 27.5 220.7 32.1 203.9 32.1 203.9 11.1 220.3 11.1 220.3 15.7 209.7 15.7 209.7 19.2 219 19.2 219 23.7 209.7 23.7 209.7 27.5 220.7 27.5 220.7 27.5"/>
      </g>
      <g>
        <polygon points="222.3 13.4 222 13.4 222 11.4 221.3 11.4 221.3 11.2 223.1 11.2 223.1 11.4 222.3 11.4 222.3 13.4"/>
        <polygon points="223.7 11.6 223.7 13.4 223.4 13.4 223.4 11.2 223.7 11.2 224.4 12.7 225.2 11.2 225.5 11.2 225.5 13.4 225.3 13.4 225.3 11.6 224.6 13 224.4 13 223.7 11.6"/>
      </g>
    </g>
  </g>
</svg>