<?xml version="1.0" encoding="UTF-8"?>
<svg id="Layer_2" data-name="Layer 2" xmlns="http://www.w3.org/2000/svg" width="205.6" height="46" viewBox="0 0 205.6 46">
  <g id="Layer_1-2" data-name="Layer 1">
    <g>
      <g>
        <path d="M49,16.6v5.6h8.9l-1.4,2.9h-7.6v7.1h-3.4V13.8h13.9l-1.4,2.9h-9.1Z"/>
        <path d="M65.4,24.2V13.8h3.4v10.3c0,3.8,1.7,5.4,4.7,5.4s4.7-1.6,4.7-5.4V13.8h3.4v10.4c0,5.4-3,8.3-8.1,8.3s-8.1-2.9-8.1-8.3Z"/>
        <path d="M106.1,13.8v18.5h-2.8l-10.2-12.5v12.5h-3.4V13.8h2.8l10.2,12.5V13.8h3.4Z"/>
        <path d="M126.8,22.8h3.2v7.4c-1.9,1.6-4.6,2.3-7.2,2.3-5.7,0-10-4-10-9.5s4.2-9.5,10-9.5,5.7,1,7.4,3l-2.2,2.1c-1.4-1.4-3.1-2.1-5.1-2.1-3.9,0-6.7,2.7-6.7,6.5s2.8,6.5,6.7,6.5,2.6-.3,3.8-.9v-5.8h0Z"/>
        <path d="M137.8,13.8h3.4v18.5h-3.4V13.8Z"/>
        <path d="M165.8,27.2c0,3.2-2.5,5-7.2,5h-9.2V13.8h8.7c4.4,0,6.8,1.9,6.8,4.8s-.9,3.3-2.4,4.1c2,.6,3.3,2.2,3.3,4.6Zm-13-10.8v5.1h4.9c2.4,0,3.7-.8,3.7-2.5s-1.3-2.6-3.7-2.6h-4.9Zm9.5,10.4c0-1.8-1.4-2.7-4-2.7h-5.5v5.3h5.5c2.6,0,4-.8,4-2.7Z"/>
        <path d="M172.7,13.8h3.4v15.6h9.7l-1.4,2.9h-11.7V13.8h0Z"/>
        <path d="M205.6,29.4l-1.4,2.9h-12.5V13.8h13.5l-1.4,2.9h-8.7v4.8h8.9l-1.4,2.8h-7.6v5.1h10.4Z"/>
      </g>
      <g>
        <polygon points="21.4 24.1 8.9 24.1 9.8 22 22.3 22 21.4 24.1"/>
        <path d="M22.6,11.3c-1.1-.6-2.3-1.1-3.6-1.4-.7-.2-1.4-.3-2.1-.3-.4,0-.8,0-1.1,0-7,0-12.9,5.5-13.5,12.5-.4,5.2,2.2,10.2,6.7,12.9,1.1,.6,2.3,1.1,3.6,1.4,.7,.2,1.4,.3,2.1,.3,.4,0,.8,0,1.1,0h0c7,0,12.9-5.5,13.5-12.5,.4-5.2-2.2-10.2-6.7-12.9Zm3.3,12.6c-.4,5.2-4.9,9.3-10.1,9.3s-.6,0-.8,0c-.3,0-.5,0-.8-.1-1.4-.2-2.7-.7-3.9-1.5-3.2-2-4.9-5.6-4.6-9.4,.4-5.2,4.9-9.3,10.1-9.3s.6,0,.8,0c.3,0,.5,0,.8,.1,1.4,.2,2.7,.7,3.9,1.5,3.2,2,4.9,5.6,4.6,9.4Z"/>
        <path d="M31.4,1.7c-.3-.6-.8-1.1-1.5-1.3-.1,0-.3,0-.4-.1-1.4-.4-3.1-.3-4.9,.5-1.9,.9-4.2,2.6-6.2,5.8-1,1.7-1.7,3.5-2.2,5.3l-5.4,22.9h0l-.7,2.4c-.2,.6-.4,1.2-.6,1.8-.3,.6-.5,1.1-.8,1.6,0,.2-.2,.3-.3,.5-1,1.7-2,2.4-3,2,0,0,0,0,0,0-.4-.1-.7-.4-1.1-.9-.3-.4-.7-.8-1.3-.9-1.2-.4-2.6,.3-3,1.5-.2,.5-.1,1.1,0,1.6,.3,.6,.8,1.1,1.5,1.4,.1,0,.3,0,.4,.1,1.2,.3,2.6,.3,4.1-.2,.3,0,.5-.2,.8-.3,5.2-2.2,7.8-9,8.3-10.8h0s0-.4,0-.4l1.5-6.4h0c.4-1.7-.7-3.3-2.4-3.6h-.2s3.5,0,3.5,0l3.1-12.8,.7-2.4c.2-.6,.4-1.2,.6-1.8,.3-.6,.5-1.1,.8-1.6,1.1-2.1,2.1-2.9,3.2-2.5,.4,.1,.8,.4,1.1,.9,.3,.4,.7,.8,1.2,.9,1.2,.4,2.6-.3,2.9-1.5,.2-.5,.1-1.1,0-1.5Z"/>
      </g>
    </g>
  </g>
</svg>