<?xml version="1.0" encoding="UTF-8"?>
<svg id="Layer_2" data-name="Layer 2" xmlns="http://www.w3.org/2000/svg" width="252.8" height="25.3" viewBox="0 0 252.8 25.3">
  <g id="Layer_1-2" data-name="Layer 1">
    <g>
      <path d="M0,0C1.2,0,2.4,0,3.6,0c.4,0,.4,0,.4,.4,0,8.1,0,16.2,0,24.4,0,.4,0,.4-.4,.4-1.2,0-2.4,0-3.6,0V0Z"/>
      <path d="M159.6,0c.1,0,.3,0,.4,0,4.5,0,9,0,13.6,0,2,0,4,.2,6,.7,3.1,.8,5.1,2.8,6.5,5.6,1.2,2.4,1.4,4.9,1.3,7.5-.1,2.1-.6,4-1.7,5.8-1.6,2.7-4,4.4-7.2,5-1.6,.3-3.3,.5-5,.5-4.5,0-9,0-13.5,0h-.5V0Zm4,12.5c0,2.9,0,5.9,0,8.8,0,.5,0,.5,.5,.5,3.2,0,6.3,0,9.5,0,1.4,0,2.7-.2,4.1-.5,2.8-.7,4.6-2.5,5.3-5.4,.5-2.1,.5-4.3,0-6.4-.6-2.7-2.1-4.5-4.7-5.3-1.8-.6-3.7-.8-5.6-.8-2.9,0-5.7,0-8.6,0-.5,0-.5,0-.5,.5,0,2.9,0,5.8,0,8.7Z"/>
      <path d="M40.3,20c0-.6-.1-1.3-.2-1.9,0-1.2-.1-2.3-.1-3.5,0-4.7,0-9.4,0-14.1q0-.5,.4-.5c1,0,1.9,0,2.9,0,.1,0,.2,0,.4,0V25.2c-.7,0-1.5,0-2.2,0,0,0-.2,0-.2-.1-4.8-4.5-9.7-9-14.5-13.6-1.7-1.6-3.3-3.1-5-4.7-.5-.5-.9-1.1-1.4-1.6,0,0-.1-.2-.3-.3,0,.5,0,1,.1,1.4,0,1.1,.1,2.2,.1,3.3,0,5,0,10,0,15.1,0,.1,0,.3,0,.4h-3.7V0c.8,0,1.6,0,2.4,0,.1,0,.3,.1,.4,.2,3,2.8,6,5.5,9,8.3,3.1,2.9,6.2,5.7,9.3,8.6,.8,.8,1.5,1.7,2.2,2.5,0,0,.2,.2,.2,.3,0,0,0,0,0,0Z"/>
      <path d="M126.8,20c-.4-3.9-.3-7.7-.3-11.6,0-2.7,0-5.3,0-8V0c.1,0,.2,0,.3,0,1,0,2,0,3,0,.3,0,.4,0,.4,.4,0,1.8,0,3.7,0,5.5,0,6.3,0,12.6,0,18.9q0,.5-.5,.5c-.3,0-.6,0-.8,0-.7,0-1.1-.2-1.6-.6-6.2-5.8-12.4-11.7-18.7-17.5-.6-.6-1.1-1.3-1.7-2,0,0,0-.1-.2-.2,0,.4,0,.6,0,.9,0,1.3,.2,2.6,.2,3.9,0,5,0,10.1,0,15.1,0,.1,0,.3,0,.4h-3.7V0c.8,0,1.6,0,2.4,0,.1,0,.2,.1,.3,.2,4.3,4,8.6,8,13,12,1.8,1.6,3.5,3.2,5.2,4.9,.8,.8,1.5,1.7,2.3,2.6,0,.1,.2,.2,.3,.3Z"/>
      <path d="M224.2,25.2c-1.5,0-2.9,0-4.3,0-.1,0-.3-.2-.3-.3-.9-1.8-1.9-3.7-2.8-5.6-.1-.3-.3-.4-.6-.4-5.2,0-10.5,0-15.7,0-.3,0-.5,0-.6,.4-.9,1.8-1.8,3.6-2.7,5.5-.2,.3-.3,.4-.7,.4-1.1,0-2.3,0-3.5,0,0-.2,.1-.3,.2-.4,3.3-6.3,6.6-12.5,9.9-18.8,1-1.9,2-3.9,3.1-5.8,0-.2,.2-.2,.4-.2,1.2,0,2.4,0,3.6,0,.3,0,.5,.1,.6,.4,2.3,4.3,4.6,8.6,6.9,12.9,2.1,3.9,4.2,7.8,6.3,11.6,0,0,.1,.2,.2,.4Zm-9.2-9.4c-2.2-4.3-4.4-8.6-6.6-13-2.2,4.4-4.4,8.7-6.6,13h13.2Z"/>
      <path d="M71.3,11.7v3.4h-10.9v10.1c-.1,0-.2,0-.3,0-1.1,0-2.3,0-3.4,0-.3,0-.3,0-.3-.3,0-1.1,0-2.1,0-3.2,0-7.1,0-14.1,0-21.2q0-.5,.5-.5c7.4,0,14.8,0,22.2,0,.1,0,.3,0,.4,0V3.4c-.1,0-.3,0-.4,0-6.1,0-12.1,0-18.2,0q-.5,0-.5,.5c0,2.5,0,4.9,0,7.4,0,.1,0,.3,0,.4h10.9Z"/>
      <path d="M226.4,3.4V0c.1,0,.2,0,.4,0,8.5,0,17.1,0,25.6,0,.3,0,.4,0,.4,.4,0,.9,0,1.7,0,2.6,0,.4-.1,.4-.4,.4-3.4,0-6.9,0-10.3,0q-.5,0-.5,.5c0,7,0,13.9,0,20.9s0,.3,0,.5h-4c0-.2,0-.3,0-.5,0-7,0-13.9,0-20.9q0-.5-.5-.5c-3.4,0-6.8,0-10.2,0h-.5Z"/>
      <path d="M146.9,25.2h-4V0h4V25.2Z"/>
      <path d="M86.5,25.2V0c.1,0,.3,0,.4,0,1,0,2.1,0,3.1,0q.5,0,.5,.5c0,.5,0,1,0,1.4,0,7.6,0,15.2,0,22.8,0,.1,0,.3,0,.4,0,0-.1,.2-.2,.2-1.3,0-2.5,0-3.8,0Z"/>
    </g>
  </g>
</svg>