<?xml version="1.0" encoding="UTF-8"?>
<svg id="Layer_2" data-name="Layer 2" xmlns="http://www.w3.org/2000/svg" width="317.1" height="50.4" viewBox="0 0 317.1 50.4">
  <g id="Layer_1-2" data-name="Layer 1">
    <g>
      <g id="ntt-logo-color">
        <g id="Trazado_2" data-name="Trazado 2">
          <path d="M26.6,43.8c-11.1,0-20.1-9-20.1-20.1,0,0,0,0,0-.1,0-10.3,7.5-17.4,13.3-17.2-2.8,2.9-4.4,6.7-4.5,10.7-.1,6.2,4.8,11.3,11,11.4,6.2,.1,11.3-4.8,11.4-11,0-.1,0-.2,0-.4,0-4-1.6-7.8-4.5-10.7,5.9-.3,13.3,6.8,13.3,17.2,0,11.1-8.9,20.1-20,20.2,0,0,0,0-.1,0m0-35.7c2.9,2,4.6,5.2,4.7,8.7,0,2.9-1.9,5.2-4.7,5.2s-4.7-2.3-4.7-5.2c.1-3.5,1.9-6.7,4.7-8.7M33.1,0c-2.2,0-4.4,.4-6.4,1.2C24.6,.4,22.4,0,20.2,0,9.6,0,0,10,0,23.8c0,14.7,11.9,26.6,26.6,26.6,14.7,0,26.6-11.9,26.6-26.6C53.2,10,43.7,0,33.1,0"/>
        </g>
        <g id="Trazado_3" data-name="Trazado 3">
          <path d="M78,11.2v5.3h2.9v9.7l-7.9-14.9h-9.1v5.3h2.9v16.1h-2.9v5.3h12v-5.3h-2.9v-9.7l7.9,14.9h6.2V16.4h2.9v-5.3h-12.1Z"/>
        </g>
        <g id="Trazado_4" data-name="Trazado 4">
          <path d="M115,21.4V11.2h-23.2v10.2h5.3v-5h2.8v16.1h-3.8v5.3h14.7v-5.3h-3.8V16.4h2.8v5h5.3Z"/>
        </g>
        <g id="Trazado_5" data-name="Trazado 5">
          <path d="M140,21.4V11.2h-23.2v10.2h5.3v-5h2.8v16.1h-3.8v5.3h14.7v-5.3h-3.8V16.4h2.8v5h5.3Z"/>
        </g>
      </g>
      <g>
        <path d="M188,19.9v-2.3h0c-.9,1.5-2.8,2.6-5,2.6-4.9,0-7.3-3.4-7.3-9.5s2.5-9.8,7.3-9.8,5.3,1.5,6.3,5.5l-1.5,.3c-.9-3.1-2.5-4.4-4.8-4.4-3.4,0-5.6,3.2-5.6,8.5s2,8.1,5.7,8.1,4.9-2,4.9-5.3,0-.6,0-1h-4.9v-1.4h6.4v8.7h-1.4Z"/>
        <path d="M193.8,19.9V1.3h1.5V19.9h-1.5Z"/>
        <path d="M198.7,13.2c0-4.4,2.1-7.1,5.5-7.1s5.5,2.6,5.5,7.1-2.2,7-5.5,7-5.5-2.7-5.5-7Zm9.5,0c0-3.5-1.3-5.8-4-5.8s-4,2.3-4,5.8,1.3,5.7,4,5.7,4-2.3,4-5.7Z"/>
        <path d="M213.2,19.9V1.3h1.5v7c1.2-1.4,2.4-2,4.1-2,3.2,0,5.5,2.7,5.5,7.1s-2,6.9-5.3,6.9-3-.5-4.4-2l-.4,1.6h-1Zm1.5-3.5c.9,1.6,2.5,2.5,4.1,2.5,2.5,0,4-2.1,4-5.6s-1.5-5.7-4-5.7-3,.9-4,2.5v6.3Z"/>
        <path d="M235.5,19.9l-.2-1.7c-1.5,1.4-3.2,2-4.8,2-2.4,0-3.8-1.4-3.8-3.6s.6-2.8,2.2-3.7c1.3-.7,3.9-1.4,6.4-1.9,.2-2.9-.9-3.7-3-3.7s-2.8,.6-3.9,2.3l-1.1-.7c1.2-2,2.8-2.9,5-2.9,3.2,0,4.6,1.4,4.6,4.1v7.8l.2,1.8h-1.5Zm-.2-7.6c-2.9,.6-4.6,1.1-5.7,1.8-.9,.5-1.4,1.4-1.4,2.5s.9,2.3,2.4,2.3,3.6-.9,4.7-2.3v-4.3Z"/>
        <path d="M241.2,19.9V1.3h1.5V19.9h-1.5Z"/>
        <path d="M177,49.1V30.5h4.5c6.3,0,8.9,3.3,8.9,9.2s-3.2,9.5-9.5,9.5h-3.9Zm4.1-1.4c5.2,0,7.7-2.5,7.7-8.1s-2.3-7.8-7.1-7.8h-3.1v15.9h2.5Z"/>
        <path d="M201.7,49.1l-.2-1.7c-1.5,1.4-3.2,2-4.8,2-2.4,0-3.8-1.4-3.8-3.6s.6-2.8,2.2-3.7c1.3-.7,3.9-1.4,6.4-1.9,.2-2.9-.9-3.7-3-3.7s-2.8,.6-3.9,2.3l-1.1-.7c1.2-2,2.8-2.9,5-2.9,3.2,0,4.5,1.4,4.5,4.1v7.8l.2,1.8h-1.5Zm-.2-7.6c-2.9,.6-4.6,1.1-5.7,1.8-.9,.5-1.4,1.4-1.4,2.5s.9,2.3,2.4,2.3,3.6-.9,4.7-2.3v-4.3Z"/>
        <path d="M212.3,49.2c-.6,.1-1.1,.2-1.8,.2-2,0-2.7-.8-2.7-3.1v-9.3h-2v-1.3h2v-4.4h1.5v4.4h3v1.3h-3v9.3c0,1.2,.4,1.8,1.4,1.8s1,0,1.6-.2v1.2Z"/>
        <path d="M223.2,49.1l-.2-1.7c-1.5,1.4-3.2,2-4.8,2-2.4,0-3.8-1.4-3.8-3.6s.6-2.8,2.2-3.7c1.3-.7,3.9-1.4,6.4-1.9,.2-2.9-.9-3.7-3-3.7s-2.8,.6-3.9,2.3l-1.1-.7c1.2-2,2.8-2.9,5-2.9,3.2,0,4.6,1.4,4.6,4.1v7.8l.2,1.8h-1.5Zm-.2-7.6c-2.9,.6-4.6,1.1-5.7,1.8-.9,.5-1.4,1.4-1.4,2.5s.9,2.3,2.4,2.3,3.6-.9,4.7-2.3v-4.3Z"/>
        <path d="M247.3,43.7c-1,4.1-3.3,5.7-6.7,5.7-4.9,0-7-3.7-7-9.7s2.7-9.6,7-9.6,5.3,1.5,6.3,5.5l-1.5,.3c-.9-3.1-2.4-4.4-4.8-4.4s-5.4,3.2-5.4,8.2,1.7,8.3,5.4,8.3,4.3-1.5,5.2-4.7l1.5,.3Z"/>
        <path d="M255.1,49.4c-3.4,0-5.5-2.5-5.5-6.9s2.3-7.1,5.5-7.1,5.4,2.5,5.4,6.4,0,.4,0,.8h-9.4c0,3.5,1.2,5.6,4.1,5.6s3-.7,4.1-2.7l1.2,.7c-1.2,2.4-3.1,3.3-5.4,3.3Zm-4-8.2h7.8c0-2.7-1.4-4.6-3.8-4.6s-3.7,2.1-3.9,4.6Z"/>
        <path d="M272.5,49.1v-9.4c0-2.1-.7-3-2.5-3s-2.6,.6-4.4,2.5v9.9h-1.5v-13.4h1.5v2.1c1.5-1.6,2.9-2.4,4.7-2.4s2.3,.4,3,1.2c.6,.7,.8,1.8,.8,3.2v9.4h-1.5Z"/>
        <path d="M283.3,49.2c-.6,.1-1.1,.2-1.8,.2-2,0-2.7-.8-2.7-3.1v-9.3h-2v-1.3h2v-4.4h1.5v4.4h3v1.3h-3v9.3c0,1.2,.4,1.8,1.4,1.8s1,0,1.6-.2v1.2Z"/>
        <path d="M291,49.4c-3.4,0-5.5-2.5-5.5-6.9s2.3-7.1,5.5-7.1,5.4,2.5,5.4,6.4,0,.4,0,.8h-9.4c0,3.5,1.2,5.6,4.1,5.6s3-.7,4.1-2.7l1.2,.7c-1.2,2.4-3.1,3.3-5.4,3.3Zm-4-8.2h7.8c0-2.7-1.4-4.6-3.8-4.6s-3.7,2.1-3.9,4.6Z"/>
        <path d="M300,49.1v-13.4h1.5v2.7c1.2-2.2,2.6-3,4.2-3s.2,0,.4,0v1.4c-.2,0-.4,0-.5,0-2.1,0-3.5,1.9-4.2,3.8v8.5h-1.5Z"/>
        <path d="M315.4,38.7c-.9-1.4-2-2-3.5-2s-2.5,.9-2.5,2.2c0,3.5,7.7,1.4,7.7,6.7s-1.9,3.8-4.7,3.8-3.9-1-5-2.8l1.2-.9c1,1.6,2.1,2.3,3.8,2.3s3.1-1,3.1-2.5c0-3.9-7.7-1.7-7.7-6.7s1.7-3.5,4.2-3.5,3.5,.8,4.6,2.4l-1.2,.9Z"/>
      </g>
    </g>
  </g>
</svg>