<?xml version="1.0" encoding="UTF-8"?>
<svg id="Layer_2" data-name="Layer 2" xmlns="http://www.w3.org/2000/svg" width="244.1" height="44" viewBox="0 0 244.1 44">
  <g id="Layer_1-2" data-name="Layer 1">
    <g>
      <path d="M0,0V35.8H16.7V14.3h9.6v21.5h16.7V0H0Z"/>
      <path d="M62.1,0h7.2l16.7,22.2V0h7.7V35.8h-6.7l-17.2-22.6v22.6h-7.7V0Zm35.4,22.4c0,8.3,6,14.1,14.2,14.1s8.6-1.9,11.1-5.1l-4.4-3.9c-2.1,2-4,2.8-6.6,2.8s-5.9-1.8-6.7-5.3h19c0-.7,.1-1.4,.1-2,0-7.7-4.2-14.8-13.3-14.8s-13.5,6.4-13.5,14.2h0m7.6-2.2c.6-3.5,2.7-5.8,5.9-5.8s5.3,2.3,5.7,5.8h-11.6Zm24,8c0,6.3,3.2,8.2,7.9,8.2s4.5-.6,6.1-1.6v-6.2c-1.1,.6-2.4,1-3.8,1s-2.5-.9-2.5-2.7V15.2h6.4v-6.6h-6.4V1.6h-7.7v7h-3.3v6.6h3.3v12.9m54.7,15.9h7.7v-11.7c1.8,2.2,4.4,4.1,8.5,4.1,6.5,0,12.4-5,12.4-14.1h0c0-9.2-6-14.2-12.4-14.2s-6.6,1.9-8.5,4.4v-3.9h-7.7V44Zm20.9-21.7c0,4.6-3,7.5-6.7,7.5s-6.6-3-6.6-7.5h0c0-4.6,3-7.6,6.6-7.6s6.7,3,6.7,7.5h0m10.9,21.8h7.7v-11.7c1.8,2.2,4.4,4.1,8.5,4.1,6.4,0,12.4-5,12.4-14.1h0c0-9.2-6-14.2-12.4-14.2s-6.6,1.9-8.5,4.4v-3.9h-7.7V44Zm20.9-21.7c0,4.6-3.1,7.5-6.7,7.5s-6.6-3-6.6-7.5h0c0-4.6,3-7.6,6.6-7.6s6.7,3,6.7,7.5h0m-91.3,13.7h8l3.3-8h14.1l3.3,8h8.2L167,0h-7l-14.9,35.8h0Zm13.6-14.9l4.7-11.6,4.7,11.6h-9.5Z"/>
    </g>
  </g>
</svg>