<?xml version="1.0" encoding="UTF-8"?>
<svg id="Layer_2" data-name="Layer 2" xmlns="http://www.w3.org/2000/svg" width="200.7" height="45" viewBox="0 0 200.7 45">
  <g id="Layer_1-2" data-name="Layer 1">
    <g>
      <path d="M21.5,11.7c-.9,1.7-.4,3.2,.7,3.2s2.9-1.3,3.7-3,.4-3.2-.7-3.2c-1.2-.1-2.9,1.3-3.7,3Zm9.9-6.2c-.7,2.2-1.9,4.5-3.2,6.2-2.6,3.7-6.2,6.1-8.1,5.3-2-.9-1.4-4.6,1-8.4,.5-.8,1.2-1.6,1.9-2.3l-2.4,.4c-8.5,10.5-12.1,24.1-11.5,36.2C4.1,41,.5,36.1,0,29.9-.7,18.9,8,7.7,19.5,4.8c4.3-1,8.5-.7,11.9,.7h0Z"/>
      <path d="M28.3,35.1l-2.6,1.6c-.1-2.6-.7-5.2-1.7-7.3-2.6-5.6-7.2-6.1-10.2-1-1.9,3.2-2.7,7.6-2.4,11.9,3.2,1,6.9,1.2,10.8,.1,11.4-2.9,20.2-14.1,19.4-25.1C41.1,5.7,33.5-.5,24,0c-.9,1-1.7,1.9-2.6,2.9,5.6-.7,10.1,.4,13,2.7-10.1,14.4-8.8,22.5-6.1,29.4q0-.1,0,0t0,0h0ZM122.4,18.8c2.4,0,4.2,.6,5,1l-.9,4.3c-1-.6-2.6-1.2-4.5-1.2s-2.4,.6-2.4,1.7,.7,1.4,2.3,2.2c2,1,4.5,2.6,4.5,5.3s-.6,3.3-1.7,4.5c-1.6,1.6-4.2,2.4-7.2,2.4s-4.8-.7-5.9-1.6l.9-4.3c1.3,.9,3.7,1.7,5.6,1.7s2.4-.7,2.4-1.7-.7-1.6-2.4-2.4c-2.7-1.4-4.2-3.2-4.2-5.2,0-4.2,3.4-6.8,8.5-6.8h0Zm-32.1,0c1.4,0,2.7,.2,4,.7l-.9,4.6c-.9-.4-1.9-.7-3.2-.7-4.2,0-6.6,3.6-6.6,7.1s2,4,3.7,4,3-.3,4.8-1.3l-.9,4.8c-1.3,.6-3.4,1-5.5,1-5,0-8.2-3.2-8.2-7.9,0-6.9,5.5-12.2,12.7-12.2h0Zm-23.3,5.5c-1.6,1.6-2.7,4.5-2.7,6.8s.7,3.3,2,3.3c2.2,0,3.9-2.2,4.6-5.5l.4-2.2c.1-.7,.1-1.3,.1-1.6,0-1.4-.7-2.2-2-2.2-1,.1-1.7,.6-2.4,1.3h0Zm2,14.4v-.9c.3-.7,.9-1.9,1.2-2.2,.1-.1,0-.4-.1-.4-.1-.1-.4,0-.4,.1h0c-.1,.6-.3,1.6-1.2,2.3-1.2,1-2.7,1.7-4.5,1.7-3.9,0-5.6-3.4-5.6-6.8s1.6-7.8,4-10.2c2.1-2.1,4.9-3.3,7.9-3.3,2.3,0,4,.7,5.2,2,1.6,2,1.4,4.9,1,7.1l-2,10.9-5.5-.4h0Zm67-3.9c3,0,5.3-4.3,5.3-8.1s-.1-3.2-2.3-3.2-4,2.4-4.6,6.2c-.4,1.2-1,5,1.6,5h0Zm5-16c3.9,0,6.3,2.9,6.3,7.5s-2.3,9.7-6.3,11.8c-3.2,1.7-6.1,1.3-7.5,.1-.3-.3-.4-1-.4-1.3s-.3-.3-.4-.1c-.1,0-.3,.3-.3,.4,.3,.4,.4,.9,.4,1.3l-1.3,6.5h-5.8l4.9-25.9h5l-.3,.9c-.3,1.4-.7,2-1,2.3-.1,.1,0,.4,.1,.4,.1,.1,.4,.1,.4-.1,.1-.4,.4-1.4,1.3-2.2,1.4-1,3-1.6,4.8-1.6h0Zm-42.9-6.5h5.8l-3,15.6,7.6-8.8h6.2l-7.9,8.9,4.9,10.5h-6.2l-4.6-10.2-2,10.4h-5.8l5-26.4c-.1,0,0,0,0,0h0Zm-38.8,6.3c.3,0,.7,0,1,.1l-1.2,5.6c-.1,0-.6-.1-.9-.1-3.9,0-5.5,3.9-6.1,7.1l-1.4,7.5h-5.7l3.7-19.7h5l-.3,1.3c-.3,1.3-.6,2-.9,2.3-.1,.1,0,.4,.1,.4s.4,0,.4-.1c.1-.4,.3-1.3,1.2-2.2,1.4-1.3,3.2-2.2,4.9-2.2h0Zm136,5.9c0-1-.9-1.6-2-1.6-1.9,0-3.3,1.2-4,2.6-.6,1-.7,1.2-1.2,1.4-.1,.1-.1,.4,0,.4,.1,.1,.3,.1,.4,.1,.4-.4,.4-.7,2-.7,2.3-.1,3.7-.4,4.5-1.2,.1-.3,.3-.6,.3-1.2h0Zm-7.9,6c.6,.4,.9,1.2,.9,1.4,.1,.4,.3,.7,.4,1,.7,1,2,1.4,3.7,1.4,2.4,0,4.5-.6,6.8-1.9l-.9,4.8c-2.7,1.4-6.1,1.6-7.2,1.6-5.3,0-8.5-3-8.5-8.2s1.2-6.1,3-8.4c2.2-2.4,5-3.9,8.4-3.9s6.8,2.3,6.8,5.9-.6,3-1.6,4c-1.7,1.7-4.9,2.6-9.7,2.6s-1.4-.6-1.6-1c-.1-.1-.4-.1-.4,0-.3,.1-.3,.4-.1,.6h0Zm-7.8-11.8c1.4,0,3,.3,4,.7l-.9,4.6c-.9-.4-1.9-.7-3.2-.7-4.2,0-6.6,3.6-6.6,7.1s2,4,3.7,4,3-.3,4.8-1.3l-.9,4.8c-1.3,.6-3.4,1-5.5,1-5,0-8.2-3.2-8.2-7.9,0-6.9,5.5-12.2,12.7-12.2h0Zm-23.3,5.5c-1.6,1.6-2.7,4.5-2.7,6.8s.7,3.3,2,3.3c2.2,0,3.9-2.2,4.6-5.5l.4-2.2c.1-.7,.1-1.3,.1-1.6,0-1.4-.7-2.2-2-2.2-.9,.2-1.8,.6-2.4,1.3h0Zm2.2,14.4v-.9c.3-.7,1-1.9,1.2-2.2,.1-.1,0-.4-.1-.4-.1-.1-.4,0-.4,.1h0c-.1,.6-.3,1.6-1.2,2.3-1.2,1-2.7,1.7-4.5,1.7-3.9,0-5.6-3.4-5.6-6.8s1.6-7.8,4-10.2c2.1-2.1,4.9-3.3,7.9-3.3,2.3,0,4,.7,5.2,2,1.6,2,1.4,4.9,1,7.1l-2,10.9-5.5-.4Z"/>
    </g>
  </g>
</svg>