<?xml version="1.0" encoding="UTF-8"?>
<svg id="Layer_2" data-name="Layer 2" xmlns="http://www.w3.org/2000/svg" width="279.7" height="69.5" viewBox="0 0 279.7 69.5">
  <g id="Layer_1-2" data-name="Layer 1">
    <g>
      <path d="M36.7,34.5l14.3-14.3h18.5C63.5,8.2,51,0,36.7,0S9.9,8.2,3.9,20.2H22.4l14.3,14.3Z"/>
      <path d="M0,36.7C0,51.1,8.2,63.5,20.2,69.5l16.5-16.5L3.9,20.2C1.3,25.4,0,31,0,36.7Z"/>
      <path d="M69.5,20.2L36.7,53l16.5,16.5c12-6,20.2-18.4,20.2-32.8,0-5.7-1.3-11.4-3.9-16.5Z"/>
      <polygon points="110 42.3 102.1 20.2 93.6 20.2 106 53.1 113.7 53.1 126.2 20.2 117.9 20.2 110 42.3"/>
      <polygon points="131.6 53.1 156 53.1 156 46.2 139.3 46.2 139.3 39.8 153.1 39.8 153.1 33.1 139.3 33.1 139.3 27.2 156 27.2 156 20.2 131.6 20.2 131.6 53.1"/>
      <path d="M190.3,31.3c0-6.1-5-11.1-11.1-11.1h-15.2V53.2h7.7v-10.5h3.5l7.2,10.5h9l-8.2-11.5c4.2-1.5,7.3-5.7,7.3-10.4Zm-12.5,4.7h-6.3v-8.8h6.3c2.4,0,4.4,2,4.4,4.4,0,0,0,.2,0,.2-.1,2.3-2.1,4.1-4.4,4.1Z"/>
      <polygon points="194.7 27.2 204.7 27.2 204.7 53.1 212.4 53.1 212.4 27.2 222.5 27.2 222.5 20.2 194.7 20.2 194.7 27.2"/>
      <polygon points="258.1 42.3 250.2 20.2 241.7 20.2 254.1 53.1 261.8 53.1 274.2 20.2 266 20.2 258.1 42.3"/>
      <rect x="228.7" y="20.2" width="7.7" height="32.9"/>
      <polygon points="270.1 48.9 271.7 48.9 271.7 53.1 272.6 53.1 272.6 48.9 274.2 48.9 274.2 48.1 270.1 48.1 270.1 48.9"/>
      <polygon points="278.7 48.1 277.2 52 275.7 48.1 274.7 48.1 274.7 53.1 275.5 53.1 275.5 49.6 276.9 53.1 277.5 53.1 278.8 49.6 278.8 53.1 279.7 53.1 279.7 48.1 278.7 48.1"/>
    </g>
  </g>
</svg>