<?xml version="1.0" encoding="UTF-8"?>
<svg id="Layer_2" data-name="Layer 2" xmlns="http://www.w3.org/2000/svg" width="262.8" height="62.9" viewBox="0 0 262.8 62.9">
  <g id="Layer_1-2" data-name="Layer 1">
    <g>
      <g>
        <path d="M117.9,26.9v5.1h-11.5v17h-5.2V13.3h17.1v5h-11.9v8.6h11.5Z"/>
        <path d="M228.4,25.8c6.6,0,11.6,5.2,11.6,12,0,6.8-5.1,11.8-11.7,11.8-6.6,0-11.5-5.2-11.5-12.1,0-6.5,5.1-11.7,11.6-11.7Zm6.6,12s0,0-.1,0c0-.6,0-1.2-.2-1.8-.5-3.2-2.8-5.2-6-5.4-3-.2-5.6,1.7-6.4,4.7-.5,1.9-.5,3.8,.2,5.7,.9,2.5,3,4,5.7,4.1,2.9,0,5.1-1.3,6-3.8,.4-1.1,.5-2.2,.8-3.3Z"/>
        <path d="M164.8,48.9h-5c0-.3,0-.5,0-.8,0-4,0-8,0-12,0-1.1-.2-2.2-.4-3.3-.3-1.4-1.3-2.2-2.7-2.3-.6,0-1.2,0-1.8,0-1.6,.2-2.7,1-3.1,2.6-.4,1.5-.6,3.1-.6,4.7,0,3.5,0,6.9,0,10.4,0,.2,0,.5,0,.8h-5V26.5h5v2c.3-.2,.4-.4,.6-.5,2.2-2,4.7-2.6,7.6-1.9,2.9,.7,4.8,2.8,5.3,6,.1,.9,.2,1.9,.2,2.8,0,4.5,0,9.1,0,13.6,0,.1,0,.3,0,.5Z"/>
        <path d="M244.1,26.4h5v2c.3-.3,.5-.5,.7-.6,2.3-2,5-2.5,7.9-1.6,2.8,.8,4.3,2.8,4.8,5.6,.1,.9,.2,1.8,.2,2.6,0,4.6,0,9.1,0,13.7v.8h-5c0-.3,0-.5,0-.7,0-4,0-7.9,0-11.9,0-1.2-.2-2.4-.4-3.5-.3-1.3-1.2-2-2.6-2.2-.4,0-.9-.1-1.3,0-2,0-3.3,1-3.8,3-.3,1.5-.5,3-.5,4.6,0,3.4,0,6.8,0,10.1,0,.2,0,.5,0,.8h-5V26.4Z"/>
        <path d="M122.4,26.4h5c0,.3,0,.5,0,.7,0,4,0,8,0,12,0,1.1,.1,2.1,.4,3.2,.5,1.8,1.9,2.6,3.8,2.6,2,0,3.3-.8,3.8-2.6,.3-1,.4-2.1,.4-3.2,0-4,0-7.9,0-11.9,0-.2,0-.5,0-.8h5c0,.2,0,.4,0,.6,0,4.1,0,8.2,0,12.3,0,1.3-.1,2.6-.4,3.9-.7,3.2-3.6,5.6-7,6.1-2.1,.3-4.2,.2-6.1-.7-2.9-1.4-4.7-3.7-4.9-6.9-.2-2.6-.1-5.1-.1-7.7,0-2.5,0-5.1,0-7.7Z"/>
        <path d="M186.8,34.2c-.6-.6-1.1-1.2-1.6-1.7-2-2-4.3-2.6-6.9-1.6-2.6,1-3.9,3-4.2,5.7-.2,1.7,0,3.3,.8,4.8,1.9,3.8,6.7,4.7,9.9,1.9,.7-.6,1.5-1.3,2.3-1.9l-.2-.2c0,.7,0,1.4,0,2.1,0,1.4,0,2.7,0,4.1,0,.2-.1,.5-.3,.6-5.8,3.1-13.5,1.4-16.5-5.1-3.4-7.4,.8-15.4,8.2-16.9,2.8-.6,5.6-.2,8.2,1.1,.4,.2,.5,.4,.5,.8,0,2.1,0,4.1,0,6.3Z"/>
        <path d="M84.7,48.9c-3.7-7.5-7.5-15-11.2-22.5,1.1,0,2.1,0,3.1,0,.7,0,1.4,0,2,0,.4,0,.6,.1,.8,.5,1.7,3.6,3.4,7.2,5.2,10.9,0,.1,.1,.2,.2,.4,.1-.2,.2-.4,.3-.6,1.7-3.5,3.4-7.1,5-10.7,.2-.4,.4-.5,.8-.5,1.6,0,3.3,0,5.1,0-3.8,7.5-7.5,15-11.3,22.5Z"/>
        <path d="M198.3,48.9h-5V31.3h-2.1v-4.9h2.1v-8.2h5v8.2h3.9v4.9h-3.8v17.6Z"/>
        <path d="M212.1,49h-4.9V26.5h4.9v22.4Z"/>
        <path d="M209.5,20.3c-1.8,0-3.3-1.5-3.3-3.4,0-1.9,1.4-3.4,3.3-3.4,1.8,0,3.3,1.5,3.3,3.3,0,1.9-1.4,3.4-3.2,3.4Z"/>
      </g>
      <g>
        <g id="Combined-Shape">
          <circle id="path-4" cx="31.4" cy="31.4" r="31.4"/>
          <circle id="path-4-2" data-name="path-4" cx="31.4" cy="31.4" r="31.4"/>
          <circle id="path-4-3" data-name="path-4" cx="31.4" cy="31.4" r="31.4"/>
        </g>
        <g id="Group">
          <g id="Combined-Shape-2" data-name="Combined-Shape">
            <polygon id="path-5" points="37.8 20.2 50.4 20.2 44.1 31.1 37.8 20.2 44.1 31.1 37.8 41.9 37.8 41.9 37.8 41.9 31.5 52.8 25.3 41.9 25.3 41.9 25.3 41.9 25.3 41.9 25.3 41.9 19 31.1 18.9 31.1 19 31 12.7 20.2 25.3 20.2 25.2 20.2 31.5 31.1 31.5 31.1 37.8 20.2" fill-rule="evenodd"/>
            <polygon id="path-5-2" data-name="path-5" points="37.8 20.2 50.4 20.2 44.1 31.1 37.8 20.2 44.1 31.1 37.8 41.9 37.8 41.9 37.8 41.9 31.5 52.8 25.3 41.9 25.3 41.9 25.3 41.9 25.3 41.9 25.3 41.9 19 31.1 18.9 31.1 19 31 12.7 20.2 25.3 20.2 25.2 20.2 31.5 31.1 31.5 31.1 37.8 20.2" fill="#fff" fill-rule="evenodd"/>
          </g>
          <polygon id="Fill-3" points="37.8 41.9 31.5 52.8 25.2 41.9 37.8 41.9" fill="#e8e7e7" fill-rule="evenodd"/>
          <polygon id="Fill-8" points="44.1 31.1 37.8 42 31.5 31.1 44.1 31.1" fill="#e8e7e7" fill-rule="evenodd"/>
          <polygon id="Fill-11" points="18.9 31.1 25.2 20.2 31.5 31.1 18.9 31.1" fill="#e8e7e7" fill-rule="evenodd"/>
        </g>
      </g>
    </g>
  </g>
</svg>