<?xml version="1.0" encoding="UTF-8"?>
<svg id="Layer_2" data-name="Layer 2" xmlns="http://www.w3.org/2000/svg" width="145.1" height="46.8" viewBox="0 0 145.1 46.8">
  <g id="Layer_1-2" data-name="Layer 1">
    <g>
      <path d="M35.5,11.5c.5-2.8,1.2-6.4,6-8.9,3.7-1.9,8.5-2.2,12-2.2,15.8,0,15.8,8.2,15.8,12.2V30.7c0,2.2,.2,2.8,1.2,4.1h-13.1v-2.6c-1.7,1.2-4.8,3.4-11,3.4s-12-5.1-12-10.8,.4-4.8,2.8-7.1c3-3.1,6.6-3.6,12.5-4.4,3.7-.5,5.1-.8,7.1-1.4,0-2.3-.7-3.8-4.5-3.8s-3.9,.8-4.3,3.1l-12.4,.3h0Zm17.3,9.1c-1.1,.3-2.3,.5-3.4,.9-2.6,1-2.7,2.6-2.7,3,0,.9,.8,2.6,3.3,2.6s5-1.2,6.1-3.8c.6-1.4,.6-2.8,.6-3.9-1.3,.4-2.6,.9-3.9,1.3"/>
      <path d="M68.2,1.4h13.8l3.3,14.4c.7,3.9,.9,4.8,1.5,9.8,.6-5.2,.8-6.3,1.6-10.2l3.4-14h13.8l-12.2,35.3c-.9,2.5-1.8,5.2-3.9,7.3-2.8,2.8-5.2,2.8-9.3,2.8s-4.4-.1-7-.4v-9.5c1.1,0,2.5,.2,3.7,.2,1.8,0,2.8-.4,2.8-1.6s-.8-2.6-1-3.4L68.2,1.4Z"/>
      <path d="M135.6,4.8c3.2,3,5.2,8.1,5.2,13.3,0,10.5-7.3,17.9-19.9,17.9s-19-8.8-19-17.7S109.3,0,121.6,0c6.8,0,11.4,2.4,14,4.8m-20.5,13.1c0,3.2,.8,8.8,6.2,8.8s6.1-3.9,6.1-9-.1-8.7-6.2-8.5c-5,.1-6.1,4.9-6.1,8.6"/>
      <path d="M142.6,1.7c1.4,0,2.5,1.1,2.5,2.5s-1.1,2.5-2.5,2.5-2.5-1.1-2.5-2.5,1.1-2.5,2.5-2.5m0,4.5c1.1,0,2-.9,2-2s-.9-2.1-2-2.1-2,.9-2,2.1,.9,2,2,2m-.5-.7h-.6V2.9h1.2c.2,0,1,0,1,.8s-.4,.7-.5,.7l.5,1.2h-.6l-.4-1.1h-.6v1.1h0Zm0-1.5h.6c.2,0,.5,0,.5-.4s-.1-.4-.5-.4h-.6v.7h0Z"/>
      <polygon points="11.5 34.7 33.4 34.7 33.4 24.7 21.3 24.7 14.1 32 10.8 32 33.6 8.9 33.6 2.9 2.3 34.7 8.2 34.7 11.5 34.7"/>
      <polygon points="0 27.3 0 33.6 31.8 1.3 2 1.3 2 11.2 12.4 11.2 19.6 3.9 23 3.9 0 27.3"/>
    </g>
  </g>
</svg>